<svg xmlns="http://www.w3.org/2000/svg" viewBox="0 0 747 401" xmlns:xlink="http://www.w3.org/1999/xlink">
    <defs>
        <radialGradient id="a" cx="35.944%" cy="31.932%" r="61.51%" fx="35.944%" fy="31.932%">
            <stop stop-color="#5C0800" offset="0%"/>
            <stop stop-color="#200" offset="100%"/>
        </radialGradient>
        <path id="b" d="M354.544 30.837c3.154 0 6.314.588 9.65 1.797L661.648 152.73l.106.05-.402-.12.517.177c1.11.548 5.26 2.747 9.07 6.855 5.05 5.45 7.4 11.837 7.4 20.105 0 8.253-2.35 14.62-7.38 20.04-4.13 4.448-8.67 6.643-9.27 6.922L354.46 330.82 47.303 206.76l-.078-.037.402.115-.55-.186c-1.117-.548-5.246-2.73-9.04-6.815-5.032-5.42-7.377-11.787-7.377-20.04 0-8.268 2.352-14.656 7.403-20.105 4.137-4.46 8.668-6.67 9.29-6.96l297.21-120.017c3.483-1.264 6.75-1.878 9.98-1.878"/>
        <filter id="c" width="200%" height="200%" x="-50%" y="-50%" filterUnits="objectBoundingBox">
            <feGaussianBlur stdDeviation="20" in="SourceAlpha" result="shadowBlurInner1"/>
            <feOffset in="shadowBlurInner1" result="shadowOffsetInner1"/>
            <feComposite in="shadowOffsetInner1" in2="SourceAlpha" operator="arithmetic" k2="-1" k3="1" result="shadowInnerInner1"/>
            <feColorMatrix values="0 0 0 0 0 0 0 0 0 0 0 0 0 0 0 0 0 0 1 0" in="shadowInnerInner1"/>
        </filter>
        <radialGradient id="f" cx="34.109%" cy="25.736%" r="102.095%" fx="34.109%" fy="25.736%">
            <stop stop-color="#CBA37E" offset="4.59%"/>
            <stop stop-color="#A37851" offset="100%"/>
        </radialGradient>
        <path id="e" d="M354.544.6c-7.07 0-14.134 1.322-21.2 3.947l-296.62 119.21S.51 137.81.51 179.807c0 41.995 36.21 55.966 36.21 55.966l317.74 127.725 317.817-127.725s36.21-13.97 36.21-55.967c0-41.996-36.21-56.05-36.21-56.05L375.41 4.466C368.456 1.88 361.498.6 354.544.6m0 31.556c3.14 0 6.288.583 9.61 1.78L660.398 152.98l.105.05-.4-.12.515.175c1.11.543 5.24 2.723 9.032 6.795 5.03 5.4 7.372 11.733 7.372 19.928 0 8.18-2.334 14.493-7.346 19.864-4.115 4.41-8.628 6.585-9.226 6.86L354.46 329.5 48.553 206.533l-.077-.037.4.114-.548-.185c-1.112-.543-5.225-2.707-9.003-6.755-5.012-5.37-7.347-11.683-7.347-19.864 0-8.195 2.343-14.527 7.374-19.928 4.12-4.422 8.634-6.612 9.252-6.9l296-118.96c3.47-1.253 6.725-1.862 9.942-1.862"/>
        <filter id="d" width="200%" height="200%" x="-50%" y="-50%" filterUnits="objectBoundingBox">
            <feOffset in="SourceAlpha" result="shadowOffsetOuter1"/>
            <feGaussianBlur stdDeviation="10" in="shadowOffsetOuter1" result="shadowBlurOuter1"/>
            <feColorMatrix values="0 0 0 0 1 0 0 0 0 1 0 0 0 0 1 0 0 0 0.5 0" in="shadowBlurOuter1"/>
        </filter>
        <path id="h" d="M354.5 23.412c3.397 0 6.152-2.773 6.152-6.193 0-3.42-2.755-6.2-6.152-6.2-3.397 0-6.152 2.77-6.152 6.19 0 3.42 2.755 6.19 6.152 6.19zm-38.216 10.48c3.398 0 6.152-2.756 6.152-6.157 0-3.4-2.754-6.157-6.152-6.157-3.397 0-6.15 2.757-6.15 6.157s2.753 6.157 6.15 6.157zM280.704 48.4c3.397 0 6.15-2.756 6.15-6.157 0-3.4-2.753-6.156-6.15-6.156-3.398 0-6.152 2.756-6.152 6.156s2.754 6.157 6.152 6.157zm-36.898 14.508c3.397 0 6.15-2.756 6.15-6.156s-2.753-6.157-6.15-6.157c-3.398 0-6.152 2.756-6.152 6.157 0 3.4 2.754 6.156 6.152 6.156zm-36.898 14.508c3.397 0 6.15-2.756 6.15-6.156s-2.753-6.157-6.15-6.157c-3.398 0-6.152 2.756-6.152 6.157 0 3.4 2.754 6.156 6.152 6.156zm-34.263 14.51c3.397 0 6.152-2.758 6.152-6.158 0-3.4-2.755-6.157-6.152-6.157-3.397 0-6.15 2.76-6.15 6.16 0 3.4 2.753 6.16 6.15 6.16zm-35.58 14.507c3.397 0 6.15-2.757 6.15-6.157s-2.753-6.157-6.15-6.157c-3.398 0-6.152 2.75-6.152 6.15s2.754 6.15 6.152 6.15zm-36.898 14.508c3.397 0 6.15-2.75 6.15-6.15s-2.753-6.15-6.15-6.15c-3.398 0-6.152 2.76-6.152 6.16s2.754 6.16 6.152 6.16zm-34.263 13.19c3.398 0 6.152-2.75 6.152-6.15s-2.754-6.15-6.152-6.15c-3.397 0-6.15 2.76-6.15 6.16s2.753 6.16 6.15 6.16zm-34.262 17.15c3.397 0 6.15-2.75 6.15-6.15s-2.753-6.15-6.15-6.15c-3.398 0-6.152 2.76-6.152 6.16s2.754 6.16 6.152 6.16zm-15.814 31.65c3.398 0 6.152-2.75 6.152-6.15 0-3.4-2.754-6.15-6.152-6.15-3.397 0-6.15 2.76-6.15 6.16s2.753 6.16 6.15 6.16zm14.496 32.98c3.397 0 6.15-2.75 6.15-6.15s-2.753-6.15-6.15-6.15c-3.398 0-6.152 2.76-6.152 6.16s2.754 6.16 6.152 6.16zm34.262 19.79c3.398 0 6.152-2.75 6.152-6.15s-2.754-6.15-6.152-6.15c-3.397 0-6.15 2.76-6.15 6.16s2.753 6.16 6.15 6.16zm36.898 15.83c3.398 0 6.152-2.75 6.152-6.15s-2.754-6.16-6.152-6.16c-3.397 0-6.15 2.76-6.15 6.16s2.753 6.16 6.15 6.16zm36.9 14.51c3.396 0 6.15-2.75 6.15-6.15s-2.754-6.15-6.15-6.15c-3.4 0-6.153 2.76-6.153 6.16s2.76 6.16 6.16 6.16zm36.897 13.19c3.4 0 6.16-2.75 6.16-6.15 0-3.4-2.75-6.16-6.15-6.16-3.4 0-6.15 2.76-6.15 6.16s2.76 6.16 6.15 6.16zm38.22 15.83c3.4 0 6.15-2.75 6.15-6.16 0-3.4-2.75-6.15-6.15-6.15-3.4 0-6.15 2.76-6.15 6.16s2.76 6.16 6.15 6.16zm36.9 15.83c3.4 0 6.15-2.75 6.15-6.15 0-3.4-2.75-6.16-6.15-6.16-3.4 0-6.15 2.76-6.15 6.16 0 3.4 2.76 6.16 6.15 6.16zm36.9 14.51c3.4 0 6.15-2.75 6.15-6.16 0-3.4-2.75-6.15-6.15-6.15-3.4 0-6.15 2.76-6.15 6.16s2.76 6.16 6.16 6.16zm36.9 13.19c3.4 0 6.15-2.76 6.15-6.16s-2.75-6.15-6.15-6.15c-3.4 0-6.15 2.76-6.15 6.16 0 3.4 2.76 6.16 6.15 6.16zM391.4 33.9c-3.394 0-6.15-2.76-6.15-6.16 0-3.4 2.756-6.16 6.15-6.16 3.4 0 6.155 2.758 6.155 6.158S394.8 33.89 391.4 33.89zm35.58 14.5c-3.397 0-6.15-2.758-6.15-6.16 0-3.4 2.753-6.155 6.15-6.155 3.398 0 6.152 2.756 6.152 6.156s-2.754 6.16-6.152 6.16zm36.9 14.506c-3.4 0-6.153-2.756-6.153-6.156s2.754-6.156 6.152-6.156c3.39 0 6.15 2.756 6.15 6.157 0 3.4-2.76 6.16-6.15 6.16zm36.897 14.508c-3.398 0-6.152-2.756-6.152-6.156s2.754-6.158 6.152-6.158c3.397 0 6.15 2.756 6.15 6.157 0 3.4-2.753 6.155-6.15 6.155zm34.262 14.51c-3.4 0-6.15-2.758-6.15-6.158 0-3.4 2.75-6.157 6.15-6.157 3.39 0 6.15 2.75 6.15 6.15 0 3.4-2.76 6.15-6.16 6.15zm35.58 14.507c-3.4 0-6.15-2.75-6.15-6.15s2.75-6.15 6.15-6.15c3.39 0 6.15 2.76 6.15 6.16s-2.76 6.16-6.16 6.16zm36.9 14.51c-3.4 0-6.16-2.75-6.16-6.15s2.75-6.15 6.15-6.15c3.39 0 6.15 2.76 6.15 6.16s-2.76 6.16-6.15 6.16zm34.26 13.19c-3.4 0-6.15-2.75-6.15-6.15s2.75-6.15 6.15-6.15c3.39 0 6.15 2.76 6.15 6.16s-2.76 6.16-6.15 6.16zm34.26 17.15c-3.4 0-6.15-2.75-6.15-6.15s2.75-6.16 6.15-6.16c3.4 0 6.15 2.76 6.15 6.16s-2.76 6.16-6.15 6.16zm15.81 31.66c-3.4 0-6.15-2.75-6.15-6.15 0-3.4 2.75-6.15 6.15-6.15s6.15 2.76 6.15 6.16-2.76 6.16-6.16 6.16zm-14.49 32.96c-3.4 0-6.15-2.75-6.15-6.15s2.75-6.15 6.15-6.15c3.4 0 6.15 2.76 6.15 6.16s-2.76 6.16-6.15 6.16zm-34.26 19.79c-3.4 0-6.16-2.75-6.16-6.15s2.75-6.16 6.15-6.16c3.39 0 6.15 2.75 6.15 6.15s-2.76 6.16-6.15 6.16zm-36.9 15.83c-3.4 0-6.15-2.75-6.15-6.15s2.75-6.15 6.15-6.15c3.39 0 6.15 2.76 6.15 6.16s-2.76 6.16-6.15 6.16zm-36.9 14.51c-3.4 0-6.16-2.75-6.16-6.15s2.75-6.15 6.15-6.15c3.39 0 6.15 2.76 6.15 6.16s-2.76 6.16-6.15 6.16zm-36.9 13.19c-3.4 0-6.15-2.75-6.15-6.15 0-3.4 2.75-6.15 6.15-6.15 3.39 0 6.15 2.76 6.15 6.16s-2.76 6.16-6.15 6.16zm-38.22 15.83c-3.4 0-6.15-2.75-6.15-6.15 0-3.4 2.75-6.15 6.15-6.15 3.39 0 6.15 2.76 6.15 6.16 0 3.41-2.76 6.16-6.15 6.16zm-36.9 15.83c-3.4 0-6.15-2.75-6.15-6.15 0-3.4 2.75-6.16 6.15-6.16 3.39 0 6.15 2.76 6.15 6.16 0 3.4-2.76 6.16-6.15 6.16zm-36.9 14.51c-3.4 0-6.15-2.75-6.15-6.15 0-3.4 2.75-6.15 6.15-6.15 3.4 0 6.15 2.76 6.15 6.16s-2.75 6.16-6.15 6.16zm-36.9 13.19c-3.39 0-6.15-2.75-6.15-6.15s2.76-6.15 6.15-6.15c3.4 0 6.16 2.76 6.16 6.16 0 3.4-2.75 6.16-6.15 6.16z"/>
        <filter id="g" width="200%" height="200%" x="-50%" y="-50%" filterUnits="objectBoundingBox">
            <feOffset in="SourceAlpha" result="shadowOffsetOuter1"/>
            <feGaussianBlur stdDeviation="4" in="shadowOffsetOuter1" result="shadowBlurOuter1"/>
            <feColorMatrix values="0 0 0 0 1 0 0 0 0 1 0 0 0 0 1 0 0 0 0.702870245 0" in="shadowBlurOuter1" result="shadowMatrixOuter1"/>
            <feOffset in="SourceAlpha" result="shadowOffsetOuter2"/>
            <feGaussianBlur stdDeviation="4" in="shadowOffsetOuter2" result="shadowBlurOuter2"/>
            <feColorMatrix values="0 0 0 0 1 0 0 0 0 1 0 0 0 0 1 0 0 0 1 0" in="shadowBlurOuter2" result="shadowMatrixOuter2"/>
            <feOffset in="SourceAlpha" result="shadowOffsetOuter3"/>
            <feGaussianBlur stdDeviation="5" in="shadowOffsetOuter3" result="shadowBlurOuter3"/>
            <feColorMatrix values="0 0 0 0 1 0 0 0 0 1 0 0 0 0 1 0 0 0 1 0" in="shadowBlurOuter3" result="shadowMatrixOuter3"/>
            <feMerge>
                <feMergeNode in="shadowMatrixOuter1"/>
                <feMergeNode in="shadowMatrixOuter2"/>
                <feMergeNode in="shadowMatrixOuter3"/>
            </feMerge>
        </filter>
        <filter id="i" width="200%" height="200%" x="-50%" y="-50%" filterUnits="objectBoundingBox">
            <feGaussianBlur stdDeviation="1.5" in="SourceAlpha" result="shadowBlurInner1"/>
            <feOffset dy="1" in="shadowBlurInner1" result="shadowOffsetInner1"/>
            <feComposite in="shadowOffsetInner1" in2="SourceAlpha" operator="arithmetic" k2="-1" k3="1" result="shadowInnerInner1"/>
            <feColorMatrix values="0 0 0 0 1 0 0 0 0 1 0 0 0 0 1 0 0 0 1 0" in="shadowInnerInner1"/>
        </filter>
    </defs>
    <g fill="none" fill-rule="evenodd">
        <g transform="translate(19 19)">
            <use fill="url(#a)" xlink:href="#b"/>
            <use fill="#000" filter="url(#c)" xlink:href="#b"/>
        </g>
        <g transform="translate(19 19)">
            <use fill="#000" filter="url(#d)" xlink:href="#e"/>
            <use fill="url(#f)" xlink:href="#e"/>
        </g>
        <g transform="translate(19 19)">
            <use fill="#000" filter="url(#g)" xlink:href="#h"/>
            <use fill="#F1F9C7" xlink:href="#h"/>
            <use fill="#000" filter="url(#i)" xlink:href="#h"/>
        </g>
    </g>
</svg>
